# xmcd CD database file
#
# Track frame offsets:
#	150
#	24490
#	45825
#	73450
#	101337
#	123300
#	153825
#	171737
#	204250
#	222225
#	244142
#	272250
#
# Disc length: 3970 seconds
#
# Revision: 2
# Processed by: cddbd v1.5PL3 Copyright (c) Steve Scherf et al.
# Submitted via: CDex 1.40Release
#
DISCID=a10f800c
DTITLE=Scudelia Electro - Scudelia Electro
DYEAR=1900
DGENRE=Pop
TTITLE0=Good Bye Natuilus
TTITLE1=Speed Star Running
TTITLE2=Super Sonic Level
TTITLE3=200 Miles Away
TTITLE4=C-Love-R
TTITLE5=Better Days
TTITLE6=Rocket Ride (Rev.ver.)
TTITLE7=Words
TTITLE8=Pop Music
TTITLE9=Vega
TTITLE10=Truth
TTITLE11=Rocket Ride
EXTD=ID3G: 13
EXTT0=
EXTT1=
EXTT2=
EXTT3=
EXTT4=
EXTT5=
EXTT6=
EXTT7=
EXTT8=
EXTT9=
EXTT10=
EXTT11=
PLAYORDER=
